<?xml version='1.0' encoding='utf-8'?>
<svg xmlns="http://www.w3.org/2000/svg" height="100%" stroke-miterlimit="10" style="fill-rule:nonzero;clip-rule:evenodd;stroke-linecap:round;stroke-linejoin:round;" version="1.1" viewBox="0 0 3000 3000" width="100%"> <defs> <linearGradient gradientTransform="matrix(1 0 0 1 0 0)" gradientUnits="userSpaceOnUse" id="LinearGradient" x1="1500" x2="2805.81" y1="1500" y2="194.188"> <stop offset="0" stop-color="#7e7e7e"/> <stop offset="0.555825" stop-color="#c8c8c8"/> <stop offset="1" stop-color="#7e7e7e"/> </linearGradient> </defs> <g id="Layer-1"> <path d="M474 194.188C319.461 194.187 194.188 319.461 194.188 474L194.188 2526C194.187 2680.54 319.461 2805.81 474 2805.81L2526 2805.81C2680.54 2805.81 2805.81 2680.54 2805.81 2526L2805.81 474C2805.81 319.461 2680.54 194.188 2526 194.188L474 194.188ZM1506.19 823.469L1516.91 823.469C1615.87 823.83 2117.3 827.423 2252.5 863.781C2335.68 886.363 2400.56 951.494 2422.84 1034.75C2435 1080.5 2443.57 1141.05 2449.34 1203.53L2450.53 1216.06L2453.19 1247.38L2454.16 1259.88C2461.98 1369.91 2462.94 1472.99 2463.06 1495.5L2463.06 1504.5C2462.94 1527.86 2461.86 1637.92 2453.19 1752.53L2452.22 1765.16L2451.16 1777.69C2445.14 1846.55 2436.21 1914.93 2422.84 1965.25C2400.62 2048.54 2335.72 2113.7 2252.5 2136.22C2112.85 2173.78 1582.06 2176.41 1508.5 2176.53L1491.41 2176.53C1454.21 2176.53 1300.32 2175.82 1139 2170.28L1118.53 2169.56L1108.06 2169.06L1087.47 2168.22L1066.91 2167.38C933.272 2161.48 806.006 2151.99 747.375 2136.09C664.19 2113.6 599.29 2048.5 577.031 1965.25C563.668 1915.05 554.738 1846.55 548.719 1777.69L547.781 1765.03L546.812 1752.53C540.871 1670.95 537.576 1589.2 536.938 1507.41L536.938 1492.59C537.178 1466.71 538.124 1377.25 544.625 1278.53L545.469 1266.16L545.844 1259.88L546.812 1247.38L549.469 1216.06L550.656 1203.53C556.435 1141.05 564.997 1080.38 577.156 1034.75C599.378 951.456 664.285 886.296 747.5 863.781C806.13 848.13 933.366 838.519 1067 832.5L1087.47 831.656L1108.19 830.938L1118.53 830.562L1139.12 829.719C1253.7 826.032 1368.33 824 1482.97 823.594L1506.19 823.594L1506.19 823.469ZM1307.44 1209.91L1307.44 1789.97L1807.91 1500.06L1307.44 1209.91Z" fill="url(#LinearGradient)" fill-rule="nonzero" opacity="1" stroke="none"/> </g> </svg>